<svg width="380" height="380" viewBox="0 0 380 380" fill="none" xmlns="http://www.w3.org/2000/svg">
<path d="M115.95 13H265.05C321.85 13 368 59.15 368 115.95V265.05C368 292.354 357.154 318.54 337.847 337.847C318.54 357.154 292.354 368 265.05 368H115.95C59.15 368 13 321.85 13 265.05V115.95C13 88.646 23.8465 62.4602 43.1534 43.1534C62.4602 23.8465 88.646 13 115.95 13ZM112.4 48.5C95.4527 48.5 79.1995 55.2323 67.2159 67.2159C55.2323 79.1995 48.5 95.4527 48.5 112.4V268.6C48.5 303.922 77.0775 332.5 112.4 332.5H268.6C285.547 332.5 301.801 325.768 313.784 313.784C325.768 301.801 332.5 285.547 332.5 268.6V112.4C332.5 77.0775 303.922 48.5 268.6 48.5H112.4ZM283.688 75.125C289.572 75.125 295.215 77.4626 299.376 81.6236C303.537 85.7845 305.875 91.428 305.875 97.3125C305.875 103.197 303.537 108.84 299.376 113.001C295.215 117.162 289.572 119.5 283.688 119.5C277.803 119.5 272.16 117.162 267.999 113.001C263.838 108.84 261.5 103.197 261.5 97.3125C261.5 91.428 263.838 85.7845 267.999 81.6236C272.16 77.4626 277.803 75.125 283.688 75.125ZM190.5 101.75C214.038 101.75 236.612 111.1 253.256 127.744C269.9 144.388 279.25 166.962 279.25 190.5C279.25 214.038 269.9 236.612 253.256 253.256C236.612 269.9 214.038 279.25 190.5 279.25C166.962 279.25 144.388 269.9 127.744 253.256C111.1 236.612 101.75 214.038 101.75 190.5C101.75 166.962 111.1 144.388 127.744 127.744C144.388 111.1 166.962 101.75 190.5 101.75ZM190.5 137.25C176.377 137.25 162.833 142.86 152.847 152.847C142.86 162.833 137.25 176.377 137.25 190.5C137.25 204.623 142.86 218.167 152.847 228.153C162.833 238.14 176.377 243.75 190.5 243.75C204.623 243.75 218.167 238.14 228.153 228.153C238.14 218.167 243.75 204.623 243.75 190.5C243.75 176.377 238.14 162.833 228.153 152.847C218.167 142.86 204.623 137.25 190.5 137.25Z" fill="white"/>
</svg>
