<svg width="380" height="380" viewBox="0 0 380 380" fill="none" xmlns="http://www.w3.org/2000/svg">
<path d="M190.5 13C92.4662 13 13 92.4662 13 190.5C13 288.534 92.4662 368 190.5 368C288.534 368 368 288.534 368 190.5C368 92.4783 288.534 13.0121 190.5 13ZM271.904 268.997C268.719 274.23 261.9 275.865 256.692 272.679C215.015 247.208 162.546 241.455 100.763 255.565C94.8038 256.934 88.869 253.203 87.5125 247.244C86.1438 241.285 89.8622 235.35 95.8333 233.994C163.442 218.551 221.446 225.201 268.234 253.785C273.442 256.994 275.102 263.789 271.904 268.997ZM293.621 220.683C289.612 227.199 281.085 229.234 274.581 225.237C226.884 195.914 154.14 187.424 97.7107 204.55C90.3951 206.766 82.6677 202.636 80.4391 195.333C78.2347 188.017 82.3649 180.302 89.6684 178.073C154.128 158.512 234.272 167.984 289.055 201.655C295.571 205.664 297.63 214.179 293.621 220.683ZM295.486 170.346C238.269 136.372 143.893 133.247 89.2687 149.816C80.4997 152.481 71.2219 147.527 68.5694 138.758C65.9169 129.989 70.8586 120.711 79.6397 118.047C142.343 99.0188 246.566 102.689 312.431 141.786C320.315 146.473 322.907 156.659 318.232 164.532C313.569 172.429 303.359 175.033 295.486 170.346Z" fill="white"/>
</svg>
