<svg width="380" height="380" viewBox="0 0 380 380" fill="none" xmlns="http://www.w3.org/2000/svg">
<path d="M305.108 84.3913C284.05 74.5747 261.25 67.4497 237.5 63.333C237.082 63.339 236.684 63.5097 236.392 63.808C233.542 69.033 230.217 75.8413 228 81.0663C202.809 77.2687 177.191 77.2687 152 81.0663C149.783 75.683 146.458 69.033 143.45 63.808C143.292 63.4913 142.817 63.333 142.342 63.333C118.592 67.4497 95.95 74.5747 74.7333 84.3913C74.575 84.3913 74.4166 84.5497 74.2583 84.708C31.1917 149.15 19.3167 211.85 25.175 273.916C25.175 274.233 25.3333 274.55 25.65 274.708C54.15 295.608 81.5416 308.275 108.617 316.666C109.092 316.825 109.567 316.666 109.725 316.35C116.058 307.641 121.758 298.458 126.667 288.8C126.983 288.166 126.667 287.533 126.033 287.375C117.008 283.891 108.458 279.775 100.067 275.025C99.4333 274.708 99.4333 273.758 99.9083 273.283C101.65 272.016 103.392 270.591 105.133 269.325C105.45 269.008 105.925 269.008 106.242 269.166C160.708 294.025 219.45 294.025 273.283 269.166C273.6 269.008 274.075 269.008 274.392 269.325C276.133 270.75 277.875 272.016 279.617 273.441C280.25 273.916 280.25 274.866 279.458 275.183C271.225 280.091 262.517 284.05 253.492 287.533C252.858 287.691 252.7 288.483 252.858 288.958C257.925 298.616 263.625 307.8 269.8 316.508C270.275 316.666 270.75 316.825 271.225 316.666C298.458 308.275 325.85 295.608 354.35 274.708C354.667 274.55 354.825 274.233 354.825 273.916C361.792 202.191 343.267 139.966 305.742 84.708C305.583 84.5497 305.425 84.3913 305.108 84.3913ZM134.9 236.075C118.592 236.075 104.975 221.033 104.975 202.508C104.975 183.983 118.275 168.941 134.9 168.941C151.683 168.941 164.983 184.141 164.825 202.508C164.825 221.033 151.525 236.075 134.9 236.075ZM245.258 236.075C228.95 236.075 215.333 221.033 215.333 202.508C215.333 183.983 228.633 168.941 245.258 168.941C262.042 168.941 275.342 184.141 275.183 202.508C275.183 221.033 262.042 236.075 245.258 236.075Z" fill="white"/>
</svg>
