<svg width="380" height="380" viewBox="0 0 380 380" fill="none" xmlns="http://www.w3.org/2000/svg">
<path d="M341.72 13C356.209 13.0002 367.952 24.3935 367.952 38.4297V342.574C367.952 356.615 356.209 368 341.72 368H39.2334C24.7511 368 13 356.616 13 342.578V38.4297C13 24.3933 24.7497 13 39.2334 13H341.72ZM251.252 146.519C223.077 146.519 210.442 162.008 203.382 172.896V150.271H150.27C150.963 165.264 150.266 310.093 150.266 310.093L150.267 310.087H203.378V220.845C203.378 216.075 203.725 211.292 205.128 207.885C208.966 198.337 217.705 188.454 232.382 188.454C251.596 188.454 259.287 203.109 259.287 224.596V310.087H312.396V218.45C312.396 169.362 286.197 146.519 251.252 146.519ZM67.751 310.087H120.866V150.266H67.751V310.087ZM94.6719 73.2217C76.4933 73.2219 64.6202 85.152 64.6201 100.837C64.6201 116.174 76.1452 128.446 93.9717 128.446H94.3164L94.3203 128.448C112.839 128.448 124.367 116.176 124.367 100.839C124.021 85.1523 112.838 73.2217 94.6719 73.2217Z" fill="white"/>
</svg>
